<svg xmlns="http://www.w3.org/2000/svg" width="1024" height="1024" viewBox="0 0 1024 1024"><path fill="#ff0157" d="M491.263 307.159c3.126-3.492 5.247-5.832 9.761-7.687 10.416-4.279 25.872-2.375 32.394 7.651q.548-.04 1.127-.086c2.227-.178 4.719-.376 6.781.066 7 1.499 12.704 7.375 13.043 14.675a13.57 13.57 0 0 1-3.997 10.309c-3.421 3.429-6.631 4.147-11.043 5.487-.096 4.587-.13 9.639.369 14.208-.242-.131-.505-.296-.777-.466-1.131-.71-2.435-1.528-3.219-.528-3.317-5.773-37.288-8.391-41.498-1.774 1.962.747 3.354.525 5.254.221q.494-.08 1.042-.161c9.897-1.432 18.637-.162 27.918 1.187l.009.001c2.108.307 4.244.617 6.428.901 1.532.557 3.045 1.049 4.637 1.409 102.791 29.998 90.694 165.963-14.24 179.434a102.97 102.97 0 0 1-76.567-20.536c-25.797-20.199-37.942-53.226-33.275-85.447 4.271-29.488 24.519-52.34 50.483-65.597a107 107 0 0 1 9.641-4.383c2.339-.919 8.352-2.626 9.661-4.282l.785-.682c.142-3.806.109-7.626.077-11.439l-.001-.062-.017-2.023c-5.389-1.066-9.909-2.617-13.229-7.44a14.82 14.82 0 0 1-2.323-11.177c2.055-10.691 11.611-12.492 20.776-11.779m36.361 219.631c24.203-2.077 45.474-12.044 61.595-30.542 12.754-14.634 18.305-37.689 16.424-56.792-2.113-21.467-14.991-45.626-31.892-59.42-21.862-17.844-48.703-26.57-76.959-24.422l-.517.08c-45.497 4.737-83.704 40.665-77.882 89.287 6.243 52.129 58.482 85.573 108.963 81.842z"/><path fill="#fdf9fb" d="M485.98 351.079c.688-.206 1.55-.606 2.458-1.027 2.157-1.002 4.577-2.126 5.551-1.052-.773 1.982-7.054 3.977-8.794 2.761z"/><path fill="#ff0157" d="m436.035 387.314 1.733.216c3.591 2.8 12.528 2.404 18.945 2.119 1.416-.063 2.708-.121 3.794-.137.151 10.558 2.129 12.559 6.462 21.818l11.129 23.724c4.822 10.372 12.87 30.143 18.313 39.053 5.107-11.713 10.958-24.419 15.68-36.184-6.755-16.168-15.027-32.316-21.993-48.769 5.097.353 11.259.373 17.018.391 2.21.008 4.36.014 6.369.04-.024 8.985 1.806 12.605 4.913 18.751.719 1.422 1.506 2.978 2.354 4.768l12.564 26.598c4.695 9.943 9.686 21.979 15.079 31.588.26.463.366.656.529.748.171.098.406.084.95.157 3.517-3.009 13.127-29.011 16.096-34.85 9.697-19.066-4.237-46.586-27.777-42.249-4.889.901-7.777 4.609-10.217 8.503-1.314 2.899-2.217 8.011-3.349 9.519-.554-5.279 1.247-10.871 4.565-15.012 4.827-6.025 13.371-9.369 20.945-10.021 7.019-.604 15.373 1.887 20.769 6.546 4.329 3.737 6.214 8.483 6.632 14.045.249 3.315-.645 10.552-1.724 13.281-3.654 9.241-29.704 70.262-32.568 73.411-.83.27-1.216.399-1.607.419-.352.018-.708-.052-1.396-.186l-.266-.052c-2.183-3.096-6.152-12.333-7.93-16.018-5.979-12.39-11.465-25.837-17.909-37.936-7.615 16.87-16.37 38.203-24.503 54.092l-.011.002c-.961.168-1.421.248-1.877.232-.463-.016-.921-.131-1.893-.355-1.314-1.919-9.587-20.534-11.293-24.228l-30.88-68.027c-1.712-3.829-6.865-13.335-7.646-15.997"/><path fill="#ff0157" d="M587.743 414.92h.068c.913.004 1.681.007 2.562.335 1.649.614 3.165 2.92 3.891 4.419 4.54 9.377.767 14.409-1.773 17.796l-.001.001c-1.036 1.382-1.867 2.49-1.843 3.508.032 1.313 1.278 2.809 1.308 4.356.047 2.477-.205 5.011-.457 7.54-.176 1.773-.352 3.543-.425 5.29-.086 2.094.021 4.427.132 6.825.221 4.79.454 9.841-.823 13.771l-2.147.229-1.034-.841c-1.916-4.447-.505-23.036.264-33.167l.001-.012c.151-1.982.276-3.64.348-4.804l-.671-.648c-7.209-7.093-6.449-17.708.6-24.598"/><path fill="#ff0157" d="m441.843 431.794 1.864.743c-.493 4.221-.611 3.394-3.729 6.874-.026 5.372.116 10.742.258 16.112l.002.061c.176 6.719.353 13.437.2 20.158-.06 2.616-3.392 3.639-3.552 2.351-1.252-10.073-1.165-28.96.269-38.864-3.061-2.343-3.63-2.48-5.034-5.948a34 34 0 0 1 2.003-.739l1.38-.152c.501-.065.949-.094 1.451-.132l1.4.175c.696-.034 1.26.01 1.911.061l.426.032z"/><path fill="#ff0157" d="M438.974 416.522c.579-1.711 1.183-2.538 1.991-.259l.645.062.216-.464c2.866-6.363 1.881 16.676 1.881 16.676l-1.864-.743-1.151.732-.426-.032c-.651-.051-1.215-.095-1.911-.061.042-1.273.137-3.163.24-5.226.2-3.995.432-8.636.379-10.685"/><path fill="#ff0157" d="m441.61 416.325.216-.464c2.866-6.363 1.881 16.676 1.881 16.676l-1.864-.743c.183-2.966.413-12.883-.233-15.469"/><path fill="#fdf9fb" d="M440.692 432.526c-.7-3.475-.789-12.973.273-16.263l.645.062c.646 2.586.416 12.503.233 15.469z"/><path fill="#fee0f5" d="M433.717 413.971c.589-.541.796-.426 1.282-.155.124.069.266.148.436.229l1.679.652c.096 5.664.141 11.913-.159 17.561-.502.038-.95.067-1.451.132l-1.38.152a34 34 0 0 0-2.003.739c.412-2.57.359-5.247.306-7.91v-.017c-.079-3.956-.157-7.881 1.29-11.383"/><path fill="#ff0157" d="M434.164 425.66v.006c-.072 2.786-.138 5.375-.04 6.876a34 34 0 0 0-2.003.739c.412-2.57.359-5.247.306-7.91v-.017c-.079-3.956-.157-7.881 1.29-11.383.715 1.265.573 6.782.447 11.689"/><path fill="#ff0157" d="m435.435 414.045 1.679.652c.096 5.664.141 11.913-.159 17.561-.502.038-.95.067-1.451.132.002-.634.031-1.883.069-3.445v-.003c.123-5.183.328-13.813-.138-14.897"/><path fill="#fee0f5" fill-opacity=".565" d="M437.114 414.697c.099.227.181.448.257.654v.001c.327.88.553 1.486 1.603 1.17.053 2.049-.179 6.69-.379 10.685-.103 2.063-.198 3.953-.24 5.226l-1.4-.175c.3-5.648.255-11.897.159-17.561"/><path fill="#ff0157" d="M583.366 559.722q1.412-.02 2.878-.049c13.211-.25 29.341-.555 37.411 11.787a19.02 19.02 0 0 1 2.64 14.944c-1.656 6.975-6.429 11.04-12.19 14.588 12.548 3.725 22.158 11.64 19.663 26.266-1.205 7.063-5.263 11.083-10.968 14.884-12.515 7.246-29.868 6.86-45.52 6.511l-.102-.002c-3.443-.076-6.804-.151-10.011-.14 2.87-11.545 2.419-26.33 1.986-40.524v-.013c-.258-8.426-.509-16.643-.055-23.849.469-7.442-.312-16.831-1.918-24.101a780 780 0 0 0 16.186-.302m.161 40.177c.941.016 1.888.04 2.838.064h.004c7.003.178 14.177.36 20.37-2.705 4.706-3.887 6.388-9.069 6.37-15.008-.049-16.53-11.321-19.672-25.12-19.018-.647.048-3.928.092-4.319.379-.503 1.564-.214 32.788-.143 36.288m26.401 40.782c6.602-5.328 9.663-9.944 9.112-18.838-1.092-17.643-15.916-18.976-30.02-18.614-1.891.054-3.607.089-5.492.043-.015 4.358-.17 9.511-.33 14.828-.274 9.109-.562 18.699-.186 25.586 1.192-.012 2.308-.045 3.38-.077h.002c3.782-.113 7.021-.21 11.104.726 3.153.723 9.546-2.015 12.43-3.654"/><path fill="#ff0157" d="M306.742 559.411c1.291.27 2.61.263 3.212 1.388 2.766 5.16 5.251 11.837 7.484 17.195a2703 2703 0 0 1 14.844 36.105c5.134 12.504 8.534 23.03 16.418 34.029l-.96-.011c-6.921-.083-13.567-.162-20.507.109q.152-1.604.203-3.214c.397-15.392-12.917-28.993-28.217-28.621-4.987.121-12.554 1.625-15.87 5.648-5.404 6.556-9.494 17.594-9.594 26.064a835 835 0 0 0-28.23.042c-.61-23.05-16.984-37.863-40.531-29.077-6.135 2.289-9.55 13.855-11.837 19.791-1.162 3.552-1.189 5.98-1.264 9.615l-7.993-.025c5.751-7.698 10.768-21.928 14.739-31.314a4016 4016 0 0 0 16.741-39.574c1.823-4.32 4.639-12.64 6.906-16.223.492-.778 1.275-1.434 2.199-1.584.708-.116 2.522.036 3.13.51 2.289 1.788 8.447 19.559 10.036 23.505 3.049 7.576 23.739 58.888 26.965 60.897.6.373 1.204.163 1.802-.088 1.331-.557 2.283-1.153 3.067-2.387 4.514-7.113 7.569-16.499 10.85-24.296l20.308-48.383c1.525-3.574 2.948-8.835 6.099-10.101m-102.743 55.555c.84-.09 6.281-.716 6.749-1.032 3.583-2.422 5.863-3.444 10.592-.596 1.698 1.08 10.753 4.152 13.019 2.046-.203-1.97-14.358-37.767-15.145-38.533-3.823 9.413-12.735 29.087-15.215 38.115m112.718.34c-1.099-3.325-2.629-6.738-4.009-9.978-4-9.392-7.426-18.972-11.32-28.397-2.491 5.014-4.561 9.94-6.733 15.11-2.972 6.859-5.851 13.762-8.498 20.753-.465 1.045.229 2.113 1.339 2.214 1.517.138 3.424-.37 5.041-.801q.502-.135.96-.251c.988-.248 1.714-.711 2.402-1.15l.001-.001c1.183-.753 2.252-1.435 4.344-.827.978.284 1.642.421 2.521 1.197 2.115 1.148 4.923 1.461 7.245 2.215 1.153.375 2.327.634 3.487 1.017q1.618-.528 3.22-1.101"/><path fill="#fdf9fb" d="M316.717 615.306c.875 1.966 1.55 3.262 2.594 5.148-1.957-1.449-3.702-2.804-5.814-4.047q1.618-.528 3.22-1.101"/><path fill="#ff0157" d="M434.077 559.433q.212.009.482.016c1.437.041 3.936.111 4.657 1.287 7.896 12.865 29.307 78.564 37.327 84.715 1.236-.342 3.026-.723 3.629-1.827 3.341-6.111 6.232-13.633 8.803-20.049a2045 2045 0 0 1 16.955-41.042c1.802-4.318 7.801-18.896 9.947-22.223 1.22-.67 4.069-1.32 4.658-.081 8.227 17.311 15.336 37.963 23.203 55.269 4.89 10.756 8.527 25.663 16.527 32.923-3.137.092-6.831.002-10.459-.085l-.028-.001c-2.39-.058-4.751-.116-6.902-.12-1.095.035-2.186.026-3.28.018l-.068-.001-.804-.007c-.541-9.78-2.146-16.208-9.164-24.107-7.822-8.804-27.445-10.8-35.622-1.838-4.221 4.626-9.508 19.47-9.118 26.2-3.897.007-7.694-.081-11.484-.17l-.1-.002c-5.433-.128-10.85-.255-16.52-.102 1.098-18.987-13.72-34.49-33.082-31.504-11.356 1.751-14.788 10.43-18.45 19.717-.24.608-.469 1.17-.685 1.699-1.492 3.659-2.337 5.734-1.509 10.359l-7.899.147c5.329-7.235 13.976-29.095 17.608-37.803zm63.359 52.218c.147.151.308.336.485.537 1.212 1.383 3.127 3.568 5.908 1.456 1.57-1.192.945-2 3.928-2.002 2.888-.154 5.256.168 7.516 1.904.686.444 1.804.898 2.963 1.067 2.527.368 5.556 2.553 7.939 2.774.174.017 1.148-.655 1.167-.935-1.918-8.643-12.189-32.642-15.699-39.11-4.668 11.42-9.4 22.955-14.207 34.309m-65.13 1.772c1.114.511 2.015.657 3.195.992l.981.268c1.386.388 2.418.817 3.273 1.173 2.09.869 3.129 1.301 5.702-.375.318-1.522-13.869-36.395-15.22-37.665-4.956 11.007-9.534 22.232-14.095 33.47-1.555 3.829 1.015 4.32 4.574 3.061 1.313-.465 2.366-.969 3.287-1.411 2.768-1.327 4.357-2.088 8.303.487"/><path fill="#ff0157" d="M194.98 561.211c-.01-.183-.017-.286.01-.379.048-.17.203-.309.629-.845 1.742-.581 4.038-.539 6.201-.499h.032c.677.013 1.341.026 1.97.018-7.128 11.468-9.915 19.679-14.86 32.162l-14.22 36.384c-1.557 3.937-6.531 17.076-8.251 19.853-.811.249-1.191.365-1.577.395-.342.027-.688-.014-1.341-.09l-.305-.035c-2.953-3.215-17.115-43.087-20.885-51.104-5.393 12.094-9.614 24.951-15.413 36.97-2.04 4.228-3.234 8.981-5.389 13.386-.92.622-1.777.633-2.826.647q-.323.003-.674.014c-2.245-1.317-6.292-13.601-7.482-16.556a2519 2519 0 0 1-15.332-38.797c-4.026-10.318-8.557-24.602-15.819-32.682l-.468-.513c5.445.356 12.462.35 18.482.344h.054c1.12-.001 2.206-.002 3.24-.001.029 2.55.046 5.6.899 8.081 6.684 19.448 14.54 38.748 22.674 57.619.492 1.141.965 1.105 1.941 1.312 2.231-2.102 13.005-29.354 14.949-34.064-4.874-11.96-8.142-22.936-16.277-32.825 5.222-.127 10.653-.089 15.989-.052h.031c1.849.013 3.685.026 5.498.032-.233 7.147 3.061 15.251 5.97 22.408.577 1.419 1.139 2.801 1.655 4.131a1112 1112 0 0 0 17.362 42.05c3.226-7.099 7.386-18.802 10.234-26.435 4.398-11.787 11.295-28.017 13.317-40.02.01-.442-.007-.719-.018-.909"/><path fill="#ff0157" d="M900.699 559.926c.452-.013.876-.039 1.273-.064h.001c2.191-.137 3.576-.224 4.62 2.311 1.819 4.415 3.507 8.875 5.314 13.303l15.149 37.168c4.397 10.767 9.932 26.654 16.967 35.339q-10.768-.01-21.534.158c1.957-13.589-6.076-25.15-18.479-30.288-14.044-3.369-25.495-1.591-30.554 13.939-.665 2.041-1.315 3.576-1.891 4.937-1.386 3.273-2.347 5.542-2.063 11.417l-8.23.187c9.179-12.993 10.518-22.351 16.476-35.689 7.813-17.487 15.15-35.288 22.951-52.718m-18.351 51.105c.582 1.464.933 2.379 1.632 3.809 1.62-.376 4.029-.71 5.347-1.593 1.995.425 7.909.584 10.202.576 2.424.317 5.496 1.015 7.752 1.926.378.93 4.549.533 4.252-.497-3.681-12.794-10.184-26.265-14.903-38.642-3.635 8.104-11.577 26.331-14.282 34.421"/><path fill="#fdf9fb" fill-opacity=".984" d="m889.327 613.247.736-.432c3.072-1.87 6.736-1.053 9.466 1.008-2.293.008-8.207-.151-10.202-.576"/><path fill="#fdf9fb" d="M882.348 611.031c.582 1.464.933 2.379 1.632 3.809-1.231.676-2.849 1.276-4.201 1.912.753-1.871 1.522-4.045 2.569-5.721"/><path fill="#ff0157" d="M820.901 558.195c15.574-1.051 26.554 6.144 34.895 18.617-3.781 3.146-7.419 6.231-11.402 9.131-5.392-12.712-11.203-25.401-28.087-24.469-3.207.014-10.032 3.945-11.575 6.821-9.456 17.325 12.631 23.963 26.055 27.684 19.017 5.272 38.557 19.047 23.197 40.879-5.657 8.041-17.489 11.156-27.359 11.93-15.468.971-31.195-6.701-36.604-21.832l8.664-6.282c6.083 10.217 15.289 23.766 28.705 23.371 1.12-.034 2.191-.011 3.256.012l.046.001h.008c1.816.039 3.615.078 5.598-.156 7.378-.872 11.925-8.859 10.416-15.85-4.84-18.646-31.407-17.702-44.261-27.376-11.015-8.29-12.739-21.663-3.806-31.643 6.357-7.193 12.926-9.854 22.254-10.838"/><path fill="#ff0157" d="M660.749 559.856c10.54-.456 21.713-.271 32.569-.091 2.784.046 5.548.092 8.275.126l2.675 10.463c-12.228-4.369-22.421-7.676-35.697-7.529-.324.004-.671.001-1.029-.002h-.016c-1.627-.013-3.512-.027-4.795.515.182 9.331.165 28.02-.277 37.157 4.002-.196 7.411-.278 10.558-.353 8.29-.2 14.752-.355 25.411-2.429q.01 1.03.024 2.076c.029 2.253.058 4.544-.012 6.752-13.777-3.084-21.87-3.26-36.08-3.005.271 2.417.22 5.964.176 9.115l-.001.039c-.019 1.31-.037 2.551-.031 3.613.019 3.09-.001 6.18-.022 9.269v.004c-.04 6.063-.08 12.124.18 18.189 2.13-.074 4.161.023 6.155.117l.013.001.024.001c1.995.095 3.953.188 5.936.105 12.572-.522 22.548-4.859 33.391-10.499a970 970 0 0 0-4.667 15.092c-7.637-.603-15.284-.461-22.93-.319-3.393.063-6.786.126-10.178.124a593 593 0 0 1-9.016-.095l-.11-.002c-4.851-.075-9.671-.15-14.65-.025 2.107-9.333 2.01-25.6 1.94-37.315v-.012c-.01-1.693-.02-3.29-.022-4.758-.004-3.163.05-6.568.106-10.098v-.03c.192-12.112.407-25.687-1.646-36.001q6.874-.03 13.746-.195"/><path fill="#ff0157" d="M378.092 602.182a2940 2940 0 0 1 17.429-25.065c3.064-4.37 9.347-11.658 9.6-16.841 1.246-.976 4.622-.846 6.833-.761h.012c.372.015.71.028 1 .034-8.914 10.239-15.326 20.229-22.991 31.439-1.536 2.246-7.517 11.278-9.203 13.137-1.532 5.156-.654 30.703-.205 37.298.116 1.706 1.055 5.352 1.551 7.128a258 258 0 0 0-18.269-.131 64.6 64.6 0 0 0 1.939-12.132c.485-7.641 1.138-21.912-.583-28.968-1.801-7.386-26.82-40.622-32.838-47.505 4.917-.167 10.5-.058 15.813.046l.038.001c1.959.039 3.88.076 5.718.099q.015.304.033.608c.02.306.047.612.065.918.465 7.671 19.051 33.091 24.058 40.695"/><path fill="#ff0157" d="M754.401 602.267c4.106-5.673 24.623-33.667 25.575-38.095.386-1.798.61-3.145 1.915-4.536 1.127-.315 4.002-.164 5.957-.061l.015.001c.458.024.865.046 1.186.058-8.436 8.49-14.784 19.608-21.636 29.693-3.987 5.649-7.436 10.615-11.004 16.529-.027 1.954-.074 4.055-.123 6.254-.264 11.84-.591 26.502 1.739 36.274-5.94-.2-12.175-.199-18.142-.287 2.922-6.092 2.529-24.523 2.289-35.756-.048-2.244-.09-4.2-.098-5.714-10.167-14.148-21.289-34.891-33.305-46.894 6.607.303 14.01.241 20.68.319 1.612 8.966 18.959 33.51 24.952 42.215"/><path fill="#ff0157" d="M328.82 678.784c.593-.045 1.139-.09 1.651-.131 3.452-.282 5.364-.438 9.536.25 5.978.986 8.758 5.362 7.618 11.361-.616 3.235-3.362 4.59-6.063 6.291.28.584 1.4 2.549 2.612 4.674 1.723 3.022 3.63 6.368 3.57 6.53-.518.36-3.584.896-4.182-.045-1.103-1.736-2.042-3.655-3.072-5.464a144 144 0 0 0-3.476-5.79c-.926.025-1.716.037-2.414.047-3.466.053-4.661.071-9.005 1.432-.011.666.004 1.454.022 2.3l.002.116c.053 2.516.116 5.512-.434 7.338-.156.432-3.037.42-3.1.155-.79-3.261-.727-7.023-.664-10.784v-.019c.052-3.111.104-6.222-.329-9.047-.363-2.362-.083-4.355.228-6.581l.001-.006c.106-.756.215-1.538.305-2.371q3.596-.172 7.194-.256m13.02 13.413c2.963-3.174 3.052-4.243.274-6.779l-1.854-1.698-.399-.08c-3.539-.707-10.338-2.066-13.879-.596-.587.244-.487 4.012-.429 6.196.016.597.028 1.076.023 1.332 3.206 1.131 4.077 1.011 6.147.723.674-.093 1.476-.205 2.527-.296.33-.029 6.49.954 7.002 1.07z"/><path fill="#fdf9fb" d="M341.84 692.197c-2.441 1.387-6.462 1.316-10.145 1.251-1.824-.033-3.564-.063-4.989.085-1.507.157-1.32-1.375-1.181-2.513v-.004q.03-.238.051-.444c3.206 1.131 4.077 1.011 6.147.723.674-.093 1.476-.205 2.527-.296.33-.029 6.49.954 7.002 1.07z"/><path fill="#ff0157" d="M554.179 679.025c.985-.007 2.492-.064 4.239-.129l.014-.001c5.192-.193 12.499-.466 14.563.229 11.744 3.954 8.237 12.933.42 17.854.175.275.631.949 1.23 1.836l.009.014c2.061 3.047 5.798 8.574 5.631 8.982-.395.247-2.874.65-3.426.739-2.454-4.111-4.772-7.578-7.367-11.554-1.041.006-1.957.001-2.804-.004h-.009c-2.96-.016-5.072-.027-8.711.469-.004.419.007 1.201.022 2.152v.011c.045 3.043.116 7.807-.225 8.023-4.518 2.856-3.913-3.768-3.72-5.87v-.004c.024-.263.042-.455.042-.548.004-2.368-.023-4.73-.051-7.086-.06-5.063-.119-10.098.143-15.113m3.686 9.908c1.495 1.633 2.078 2.376 2.823 2.616.599.193 1.301.063 2.662-.189.406-.075.87-.161 1.407-.253 2.149-.366 7.403.775 9.671 1.349 4.205-3.839 3.497-9.337-2.674-10.007-3.701-.401-9.167-.299-12.768.306l-.976.16c-.01.542-.013 1.107-.017 1.682-.01 1.463-.02 2.988-.128 4.336"/><path fill="#fdf9fb" d="M557.865 688.933c1.495 1.633 2.078 2.376 2.823 2.616.599.193 1.301.063 2.662-.189.406-.075.87-.161 1.407-.253 2.149-.366 7.403.775 9.671 1.349-.238.107-.478.211-.714.321-.724.339-1.398.609-2.213.668-1.425.104-12.878.452-13.423-.24-.503-.637-.365-2.307-.268-3.472.025-.313.048-.59.055-.8"/><path fill="#ff0157" d="M482.13 678.599c1.665-.043 2.539-.066 3.172.313.812.487 1.228 1.636 2.41 4.254 3.567 7.899 7.012 16.128 10.536 24.059.414.931-2.825.886-2.993.738-1.582-1.388-2.568-4.938-3.493-6.946-2.028-.104-3.449-.203-5.476-.441a200 200 0 0 0-11.875-.01c-.89 2.031-1.885 4.036-2.731 6.088-.316.637-.714 1.119-1.412 1.285-.39.092-3.075.225-2.722-.448 4.103-7.819 8.173-21.906 12.868-28.858.652-.006 1.219-.021 1.716-.034m6.194 14.939c-1.045-2.977-1.835-6.31-4.655-7.216.036.011-1.715-2.067-2.045-1.552-1.46 2.275-2.637 5.473-3.465 8.067 2.778 3.425 6.037 4.311 9.756 1.049z"/><path fill="#fdf9fb" d="m488.324 693.538.065.147c.307.687 1.442 3.233.831 3.278-2.435.194-4.974.1-7.493.007h-.006c-1.341-.049-2.677-.098-3.988-.104-1.825-.008-.823-1.752-.205-2.827.084-.148.162-.283.224-.399l.407-.803c2.778 3.425 6.037 4.311 9.756 1.049z"/><path fill="#ff0157" d="M605.851 678.59c1.848.065 3.63.099 5.488.188 3.53 7.174 9.528 20.68 12.555 28.722l-.081.244q-.179.034-.377.073h-.001c-1.227.241-2.909.572-3.389-.58-1.05-2.524-2.031-4.875-3.093-7.16a151 151 0 0 1-4.776-.044l-.928-.018q-5.68-.083-11.358.046c-.81 2.005-2.321 5.999-3.828 7.567-.459.478-3.095.557-3.295.104.378-2.219 11.517-26.294 13.083-29.142m-.255 8.946c-.936 1.917-1.508 3.459-2.34 5.322 1.901 4.425 5.111 2.826 8.741 1.017.404-.201.813-.405 1.226-.603-.091-2.025-1.166-4.488-2.55-5.92-1.703.044-3.378.128-5.077.184"/><path fill="#fdf9fb" d="M613.223 693.272c4.849 3.411-1.538 3.745-3.945 3.248-1.395-.288-2.863-.147-4.098-.029h-.007c-2.576.246-4.138.395-1.917-3.633 1.901 4.425 5.111 2.826 8.741 1.017.404-.201.813-.405 1.226-.603"/><path fill="#fdf9fb" d="M608.391 681.766c.851 1.914 1.997 3.517 2.282 5.586-1.703.044-3.378.128-5.077.184.754-2.102 1.808-3.784 2.795-5.77"/><path fill="#ff0157" d="m661.718 695.812.038-1.463v-.006c.092-3.476.181-6.828-.11-10.343-.084-1.018.198-3.995.639-4.972.336-.406 3.069-.339 3.089.068.374 7.19.263 14.583.153 21.875l-.001.068c-.029 1.921-.058 3.835-.078 5.737-.014 1.301-5.693 2.02-7.149.132-1.82-2.36-12.892-21.538-14.535-22.165-.482.163-.648.275-.826.301-.189.029-.392-.038-1-.238l-.136-.045c-1.107 1.731-.76 6.138-.403 10.663v.004c.542 6.868 1.105 14.003-3.371 12.45-.581-.202-.514-1.546-.483-2.158q.008-.14.009-.22c.092-3.838.095-7.714.098-11.592.004-4.998.007-10 .202-14.93a284 284 0 0 1 6.782.023c4.155 5.819 10.307 16.918 14.129 21.588 1.09-1.691 1.681-3.228 2.953-4.777"/><path fill="#fdf9fb" d="M661.865 704.166v.011q-.03.903-.051 1.78c-.203-.319-.483-.717-.79-1.155l-.004-.005c-.991-1.413-2.275-3.241-2.255-4.208 1.09-1.691 1.681-3.228 2.953-4.777.322 2.659.232 5.578.147 8.354"/><path fill="#ff0157" d="M409.44 678.648c5.834-.103 12.173-.032 15.294 5.982 2.029 3.908-2.6 3.138-3.816 2.183-3.851-3.022-.223-4.902-7.421-5.222-3.834-.17-6.677.113-9.254 3.334-1.428 1.671.872 2.594 2.888 3.403h.001c.868.349 1.684.676 2.126 1.033 2.492.737 4.577 1.836 6.989 2.601 3.672.876 9.396 2.222 9.71 7.038.51 7.834-6.598 8.784-12.228 9.212-2.913-.048-4.254-.218-7.228-.755-2.25.172-11.273-7.041-6.636-8.67 1.644-.578 2.265.402 3.015 1.584l.001.002c.996 1.572 2.219 3.502 6.37 2.61.873.005 2.052.28 3.348.583 3.803.887 8.615 2.009 9.666-2.746 1.018-4.604-4.175-5.363-9.802-6.185h-.002c-5.756-.84-11.966-1.746-12.444-6.902-.595-6.41 4.601-8.26 9.423-9.085"/><path fill="#ff0157" d="m363.067 679.002 20.433-.148c.333.001.666.01.999.01q.194-.003.401-.015c.372-.02.763-.041 1.104.069.184.06.355.171.42.363.128.377.232 2.097-.128 2.558-.183.234-17.847.649-19.433.764.012 5.308.12 9.547 6.387 8.302 1.099-.218 10.444.122 10.991.789 2.152 2.625-2.835 2.747-4.963 2.799a12 12 0 0 0-.778.031c-2.28.302-4.448.265-6.677.227l-.11-.002c-.811-.013-1.632-.027-2.468-.023-2.231.509-2.6.259-2.606 2.762l-.023 1.007-.007 1.004c-.064 4.804 2.961 4.624 6.241 4.429 1.321-.079 2.683-.16 3.901.081.55.109 1.611.071 2.856.026h.002c3.339-.12 7.996-.287 7.647 2.209-.17 1.22-1.359 1.421-2.464 1.481-6.568.357-13.265.28-19.884.203l-2.055-.023c-.287-6.386-.104-14.323.064-21.59.059-2.552.116-5.022.15-7.313"/><path fill="#ff0157" d="M510.772 678.873c.2.016.5.016.842.016.917.001 2.138.002 2.552.303.538.391.449 5.386.36 10.395v.006c-.078 4.385-.156 8.779.186 10.103.481 1.863 1.639 3.357 3.402 4.204.602.289 1.497.346 2.139.157 1.409-.417 2.547-.443 4.002-.151 1.285.257 2.546.516 3.846.699 5.856-3.516 5.847-4.285 5.79-9.113a91 91 0 0 1 .015-3.743c.028-.999-.001-2.246-.032-3.585v-.01c-.075-3.239-.162-7.012.505-9.117q-.001.006.081-.025c.46-.167 2.738-.994 3.024 1.863.005 1.355.078 2.888.155 4.517v.002c.342 7.2.773 16.264-4.193 20.011-4.784 3.611-16.036 4.384-20.145-.534-3.781-4.526-3.113-15.859-2.688-23.072v-.005c.064-1.078.122-2.064.159-2.921"/><path fill="#ff0157" d="M436.48 678.665c7.624-.06 17.16.15 24.851.501.231.01.268 3.099-.089 3.143-2.286.284-8.298.311-10.355.34.021 1.796.077 3.664.133 5.547l.001.024c.104 3.525.211 7.098.092 10.34-.002.446.006.974.015 1.551.037 2.434.087 5.745-.538 7.499-.212.593-3.304.499-3.369.056-.759-5.096-.566-10.46-.377-15.703.093-2.583.185-5.137.162-7.614a35 35 0 0 1-2.048-.729l-.941-.348c-2.807-1.061-4.581-.814-5.696-.659h-.001c-1.59.221-1.841.256-1.84-3.948"/><path fill="#ff0157" d="M679.002 678.987q2.174-.016 4.357-.035c6.953-.061 13.958-.122 20.859.124.476.182.155 2.674-.03 2.696-3.31.381-6.787.383-10.176.718-.211 5.268-.202 10.124-.263 15.385-.003.639.003 1.321.01 2.025.025 2.503.052 5.291-.356 7.486-.093.501-3.159.802-3.186.371-.342-5.47-.3-11.079-.258-16.66v-.033c.022-2.871.044-5.734.013-8.567-3.276-.224-6.63-.336-9.853-.636-.385-.036-.775-1.761-.852-2.016z"/><path fill="#fee0f5" fill-opacity=".988" d="M535.702 350.788c.784-1 2.088-.182 3.219.528.272.17.535.335.777.466l-.206.79c-1.592-.36-3.105-.852-4.637-1.409z"/></svg>